<?xml version="1.0"?>
<svg xmlns="http://www.w3.org/2000/svg" xmlns:xlink="http://www.w3.org/1999/xlink" xmlns:svgjs="http://svgjs.com/svgjs" version="1.1" width="512" height="512" x="0" y="0" viewBox="0 0 512 512" style="enable-background:new 0 0 512 512" xml:space="preserve" class=""><g><script/><path xmlns="http://www.w3.org/2000/svg" d="m292.246094 357.222656v-81.195312h-163.1875v-194.832032h163.1875v-81.195312l219.753906 178.613281zm0 0" fill="#88d56b" data-original="#42a5f5" style="" class=""/><g xmlns="http://www.w3.org/2000/svg" fill="#1e88e5"><path d="m16.234375 276.027344c-8.960937 0-16.234375-7.273438-16.234375-16.234375v-162.359375c0-8.964844 7.273438-16.238282 16.234375-16.238282 8.964844 0 16.238281 7.273438 16.238281 16.238282v162.359375c0 8.960937-7.273437 16.234375-16.238281 16.234375zm0 0" fill="#56b43e" data-original="#1e88e5" style="" class=""/><path d="m81.179688 276.027344c-8.960938 0-16.234376-7.273438-16.234376-16.234375v-162.359375c0-8.964844 7.273438-16.238282 16.234376-16.238282 8.960937 0 16.234374 7.273438 16.234374 16.238282v162.359375c0 8.960937-7.273437 16.234375-16.234374 16.234375zm0 0" fill="#56b43e" data-original="#1e88e5" style="" class=""/><path d="m292.246094 357.222656v-81.195312h-163.1875v-97.414063h382.941406zm0 0" fill="#56b43e" data-original="#1e88e5" style="" class=""/></g></g></svg>
